<svg width="79" height="73" viewBox="0 0 79 73" fill="none" xmlns="http://www.w3.org/2000/svg">
<path d="M29.3776 41.2146V73H0V47.9062C0 34.3201 1.62364 24.4854 4.87091 18.4021C9.13295 10.291 15.8812 4.15694 25.1156 0L31.8131 10.6458C26.2319 12.9778 22.122 16.4757 19.4836 21.1396C16.8452 25.7021 15.3738 32.3937 15.0694 41.2146H29.3776ZM76.5646 41.2146V73H47.1869V47.9062C47.1869 34.3201 48.8105 24.4854 52.0578 18.4021C56.3198 10.291 63.0681 4.15694 72.3025 0L79 10.6458C73.4188 12.9778 69.3089 16.4757 66.6705 21.1396C64.0321 25.7021 62.5607 32.3937 62.2563 41.2146H76.5646Z" fill="#3A4BFB"/>
</svg>
